<?xml version="1.0" encoding="utf-8"?>
<!-- Generator: Adobe Illustrator 19.0.0, SVG Export Plug-In . SVG Version: 6.00 Build 0)  -->
<svg version="1.1" id="Layer_1" xmlns="http://www.w3.org/2000/svg" xmlns:xlink="http://www.w3.org/1999/xlink" x="0px" y="0px"
	 viewBox="0 0 328.7 85" style="enable-background:new 0 0 328.7 85;" xml:space="preserve">
<style type="text/css">
	.st0{fill:#1A171B;}
	.st1{fill:url(#XMLID_13_);}
</style>
<g id="XMLID_2_">
	<g id="XMLID_200_">
		<path id="XMLID_220_" class="st0" d="M105,44.1c1.2,0.4,2.2,1,2.9,1.7c0.7,0.7,1.3,1.4,1.7,2.2c0.4,0.8,0.6,1.6,0.8,2.3
			c0.1,0.8,0.2,1.4,0.2,2c0,1.6-0.3,3-0.8,4.3c-0.6,1.3-1.3,2.4-2.3,3.3c-1,0.9-2.2,1.6-3.6,2.1c-1.4,0.5-2.9,0.7-4.6,0.7H83V27
			h15.6c3.7,0,6.5,0.9,8.3,2.6s2.7,4.1,2.7,6.9c0,0.6-0.1,1.2-0.2,1.8c-0.1,0.7-0.4,1.3-0.7,2c-0.3,0.7-0.8,1.3-1.4,1.9
			c-0.6,0.6-1.3,1.1-2.2,1.5V44.1z M90.7,32.5v9.2h5.8c1.8,0,3.1-0.4,4-1.1c0.9-0.8,1.3-1.9,1.3-3.3c0-1.4-0.4-2.6-1.2-3.5
			c-0.8-0.9-2.2-1.3-4.1-1.3H90.7z M90.7,46.8v10.4h6.5c2,0,3.4-0.5,4.3-1.5c0.9-1,1.3-2.3,1.3-3.7c0-1.4-0.5-2.6-1.4-3.6
			c-0.9-1-2.3-1.5-4.2-1.5H90.7z"/>
		<path id="XMLID_217_" class="st0" d="M128,36.5c2.7,0,4.9,0.4,6.4,1.3c1.6,0.9,2.7,1.9,3.5,3.2c0.8,1.3,1.3,2.6,1.5,4.1
			c0.2,1.4,0.3,2.7,0.3,3.9v2.6h-16.7c0,2,0.5,3.5,1.5,4.5c1,1,2.6,1.5,4.9,1.5c1.4,0,2.8-0.1,4.1-0.4c1.4-0.3,2.7-0.7,4-1.2
			l1.5,4.5c-1.7,0.9-3.5,1.6-5.3,2c-1.9,0.4-3.7,0.6-5.4,0.6c-2.6,0-4.7-0.4-6.3-1.1c-1.7-0.7-3-1.7-3.9-2.9c-0.9-1.2-1.6-2.6-2-4.2
			c-0.4-1.6-0.5-3.2-0.5-5c0-1.4,0.2-2.9,0.5-4.5c0.3-1.6,1-3,1.9-4.4c0.9-1.3,2.2-2.4,3.8-3.3C123.4,37,125.4,36.5,128,36.5z
			 M128.3,41.2c-0.9,0-1.7,0.2-2.3,0.5c-0.6,0.3-1.1,0.7-1.5,1.3c-0.4,0.5-0.7,1.2-0.9,1.9c-0.2,0.7-0.3,1.4-0.4,2.2h9.9
			c0-1.7-0.4-3.1-1-4.2S130,41.2,128.3,41.2z"/>
		<path id="XMLID_215_" class="st0" d="M152.4,62.7H145V25.5h7.5L152.4,62.7z"/>
		<path id="XMLID_213_" class="st0" d="M172.4,26.3c1.8,0,3.6,0.2,5.7,0.5c2,0.4,3.9,1,5.7,2l-2,5.2c-1.8-0.7-3.5-1.2-5.2-1.4
			c-1.7-0.2-3.2-0.3-4.4-0.3c-1.6,0-2.9,0.4-3.8,1.1c-0.9,0.8-1.4,1.9-1.4,3.4c0,0.7,0.2,1.3,0.6,1.7c0.4,0.5,0.9,0.9,1.6,1.2
			c0.7,0.3,1.4,0.6,2.3,0.9c0.8,0.2,1.7,0.5,2.7,0.7c1.2,0.3,2.5,0.7,3.9,1.1c1.4,0.4,2.7,1,3.9,1.8c1.2,0.8,2.2,1.9,3,3.2
			c0.8,1.3,1.2,3,1.2,5.1c0,3.4-1.2,6-3.7,7.9c-2.5,1.9-6.2,2.8-11.3,2.8c-0.9,0-1.9-0.1-3-0.2c-1.1-0.1-2.2-0.3-3.3-0.5
			c-1.1-0.2-2.3-0.5-3.4-0.9c-1.1-0.4-2.2-0.8-3.3-1.3l2-5.4c2.5,1,4.8,1.6,6.8,1.9c2,0.3,3.6,0.4,4.8,0.4c2.1,0,3.7-0.4,4.8-1.1
			c1.1-0.7,1.6-1.9,1.6-3.7c0-0.8-0.1-1.4-0.4-1.9c-0.3-0.5-0.7-0.9-1.2-1.3c-0.5-0.4-1.1-0.7-1.9-0.9c-0.7-0.2-1.5-0.5-2.4-0.7
			c-1.8-0.4-3.4-0.9-5-1.4c-1.6-0.5-3-1.1-4.2-1.8c-1.2-0.8-2.2-1.7-2.9-2.9c-0.7-1.2-1.1-2.7-1.1-4.5c0-3.3,1.1-5.9,3.4-7.9
			C164.5,27.3,167.9,26.3,172.4,26.3z"/>
		<path id="XMLID_210_" class="st0" d="M213.2,57.7h3.3l0.4,4.1c-0.8,0.4-1.8,0.7-2.9,0.9c-1.1,0.2-2.2,0.4-3.3,0.4
			c-1.1,0-2-0.2-2.8-0.6c-0.7-0.4-1.2-1.2-1.3-2.5l-0.1-0.1c-0.9,0.8-1.8,1.4-2.7,1.8c-0.9,0.4-1.7,0.7-2.5,0.9
			c-0.8,0.2-1.5,0.3-2.1,0.4c-0.6,0-1.1,0.1-1.5,0.1c-1.6,0-2.9-0.3-3.9-0.8c-1-0.5-1.8-1.1-2.4-1.9c-0.6-0.7-1-1.5-1.2-2.4
			c-0.2-0.9-0.3-1.7-0.3-2.4c0-1.3,0.2-2.5,0.7-3.4c0.5-1,1.1-1.8,2-2.5c0.8-0.7,1.8-1.2,3-1.6c1.1-0.4,2.4-0.6,3.7-0.7
			c1-0.1,2.2-0.1,3.5-0.2c1.3-0.1,2.5-0.1,3.5-0.2v-0.6c0-1.5-0.3-2.5-0.9-3.3c-0.6-0.7-1.9-1.1-3.8-1.1c-1.2,0-2.6,0.1-4.1,0.4
			c-1.5,0.2-2.8,0.6-4,0.9c-0.2-0.8-0.4-1.6-0.6-2.3c-0.2-0.8-0.4-1.5-0.6-2.3c1.5-0.7,3.3-1.2,5.3-1.6c2-0.4,3.9-0.6,5.8-0.6
			c1.5,0,2.9,0.2,4.2,0.5c1.2,0.3,2.3,0.8,3.2,1.5c0.9,0.7,1.5,1.6,2,2.7c0.5,1.1,0.7,2.5,0.7,4.2V57.7z M201,51.7
			c-2.4,0.2-3.6,1.4-3.6,3.5c0,1.1,0.3,1.9,0.8,2.4c0.6,0.6,1.4,0.8,2.6,0.8c0.8,0,1.7-0.2,2.6-0.6c0.9-0.4,1.8-1,2.6-1.7v-4.9
			L201,51.7z"/>
		<path id="XMLID_208_" class="st0" d="M228.9,62.7h-7.4V25.5h7.5L228.9,62.7z"/>
		<path id="XMLID_206_" class="st0" d="M242.6,63.2c-1.7,0-3.1-0.2-4.1-0.7c-1-0.4-1.8-1.1-2.4-1.9c-0.6-0.8-0.9-1.7-1.1-2.8
			c-0.2-1-0.3-2.2-0.3-3.4V37.2h7.4V53c0,0.6,0,1.2,0.1,1.8c0.1,0.6,0.2,1,0.5,1.5c0.2,0.4,0.6,0.7,1,1s1.1,0.4,1.9,0.4
			c0.7,0,1.6-0.2,2.6-0.6c1-0.4,1.9-1,2.9-1.8V37.2c1.2,0,2.5,0,3.7,0c1.2,0,2.5,0,3.7,0v25.5h-6.9c-0.1-0.4-0.1-0.9-0.1-1.3
			c0-0.4,0-0.9-0.1-1.4l-0.2-0.1c-0.8,0.7-1.6,1.3-2.4,1.7c-0.8,0.4-1.6,0.8-2.4,1s-1.5,0.4-2.2,0.5C243.6,63.2,243,63.2,242.6,63.2
			z"/>
		<path id="XMLID_204_" class="st0" d="M272.9,30.1v7h7.4V42h-7.4v11.5c0,1.3,0.2,2.3,0.7,3c0.5,0.6,1.4,1,2.7,1
			c0.5,0,1.1-0.1,1.9-0.2c0.8-0.1,1.6-0.3,2.5-0.5l0.9,4.8c-1.1,0.5-2.3,0.8-3.6,1.1c-1.3,0.2-2.5,0.4-3.6,0.4
			c-1.8,0-3.2-0.2-4.4-0.6c-1.1-0.4-2-1-2.7-1.7c-0.7-0.7-1.1-1.5-1.4-2.4c-0.3-0.9-0.4-1.9-0.4-2.9V42H262v-4l4-1.2
			c0.1-0.2,0.2-0.6,0.4-1.2c0.2-0.6,0.3-1.2,0.5-1.9c0.2-0.7,0.3-1.3,0.5-1.9c0.2-0.6,0.3-1,0.4-1.2L272.9,30.1z"/>
		<path id="XMLID_201_" class="st0" d="M296.7,36.5c2.7,0,4.9,0.4,6.4,1.3c1.6,0.9,2.7,1.9,3.5,3.2c0.8,1.3,1.3,2.6,1.5,4.1
			c0.2,1.4,0.3,2.7,0.3,3.9v2.6h-16.7c0,2,0.5,3.5,1.5,4.5c1,1,2.6,1.5,4.9,1.5c1.4,0,2.8-0.1,4.1-0.4c1.4-0.3,2.7-0.7,4-1.2
			l1.5,4.5c-1.7,0.9-3.5,1.6-5.3,2c-1.9,0.4-3.7,0.6-5.4,0.6c-2.6,0-4.7-0.4-6.3-1.1c-1.7-0.7-3-1.7-3.9-2.9c-0.9-1.2-1.6-2.6-2-4.2
			c-0.4-1.6-0.5-3.2-0.5-5c0-1.4,0.2-2.9,0.5-4.5c0.3-1.6,1-3,1.9-4.4c0.9-1.3,2.2-2.4,3.8-3.3C292.1,37,294.2,36.5,296.7,36.5z
			 M297,41.2c-0.9,0-1.7,0.2-2.3,0.5c-0.6,0.3-1.1,0.7-1.5,1.3c-0.4,0.5-0.7,1.2-0.9,1.9c-0.2,0.7-0.3,1.4-0.4,2.2h9.9
			c0-1.7-0.4-3.1-1-4.2C300,41.8,298.8,41.2,297,41.2z"/>
	</g>
</g>
<g id="XMLID_24_">
	<linearGradient id="XMLID_13_" gradientUnits="userSpaceOnUse" x1="29.2833" y1="43.2454" x2="67.7611" y2="43.2454">
		<stop  offset="0" style="stop-color:#8F2A6C"/>
		<stop  offset="0.5" style="stop-color:#F23935"/>
		<stop  offset="1" style="stop-color:#EDB63A"/>
	</linearGradient>
	<path id="XMLID_25_" class="st1" d="M40.5,74.2C40.5,74.2,40.5,74.2,40.5,74.2l-20.3,0V49.1h4.3c13.4,0,16.8-2.6,16.9-2.6
		c0,0-0.1,0.1-0.4,0.4l6.8,5.3c-1.2,1.5-5.3,4.8-19,5.4v7.9l11.6,0c0,0,0,0,0,0c3.4,0,6.5-1.3,8.9-3.7c2.4-2.4,3.7-5.5,3.7-8.9v-0.4
		c0-7.3-5.9-13.2-13.1-13.2H20.3V12.3h20c0.5,0,1,0,1.5,0.1c5.7,0.5,10.4,3.9,12.7,9.2c2,4.6,1.8,9.8-0.5,14.2
		c4.7,4,7.8,10,7.8,16.7v0.4c0,5.7-2.2,11-6.2,15C51.5,71.9,46.2,74.2,40.5,74.2z M28.9,30.6H40c2.2,0,4.4,0.3,6.4,1
		c1.2-2.3,0.9-4.8,0.1-6.5c-0.5-1.1-2-3.8-5.6-4.1c-0.2,0-0.5,0-0.7,0H28.9V30.6z"/>
</g>
</svg>
